%TF.GenerationSoftware,KiCad,Pcbnew,10.0.4*%
%TF.CreationDate,2026-07-15T17:26:49+05:30*%
%TF.ProjectId,water alaram,77617465-7220-4616-9c61-72616d2e6b69,vJULY 2026*%
%TF.SameCoordinates,Original*%
%TF.FileFunction,Legend,Bot*%
%TF.FilePolarity,Positive*%
%FSLAX46Y46*%
G04 Gerber Fmt 4.6, Leading zero omitted, Abs format (unit mm)*
G04 Created by KiCad (PCBNEW 10.0.4) date 2026-07-15 17:26:49*
%MOMM*%
%LPD*%
G01*
G04 APERTURE LIST*
%ADD10C,0.100000*%
%ADD11C,0.500000*%
G04 APERTURE END LIST*
D10*
G36*
X129796236Y-113750000D02*
G01*
X130072231Y-113023133D01*
X129942416Y-113023133D01*
X129786711Y-113458618D01*
X129740244Y-113605163D01*
X129694448Y-113466861D01*
X129533248Y-113023133D01*
X129406852Y-113023133D01*
X129681503Y-113750000D01*
X129796236Y-113750000D01*
G37*
G36*
X129350188Y-113465518D02*
G01*
X129230631Y-113449092D01*
X129222291Y-113525607D01*
X129207170Y-113575697D01*
X129187644Y-113606873D01*
X129159581Y-113630053D01*
X129124926Y-113644304D01*
X129081704Y-113649371D01*
X129034473Y-113643413D01*
X128995669Y-113626413D01*
X128965010Y-113599227D01*
X128945783Y-113564009D01*
X128936200Y-113518655D01*
X128932105Y-113438162D01*
X128932105Y-112745673D01*
X128799603Y-112745673D01*
X128799603Y-113429064D01*
X128803634Y-113513176D01*
X128814343Y-113576803D01*
X128830012Y-113624031D01*
X128854319Y-113666594D01*
X128886169Y-113701427D01*
X128926304Y-113729361D01*
X128971572Y-113749102D01*
X129022766Y-113761356D01*
X129081032Y-113765631D01*
X129146524Y-113760334D01*
X129200680Y-113745500D01*
X129245615Y-113722076D01*
X129282899Y-113690099D01*
X129311710Y-113650692D01*
X129333048Y-113601642D01*
X129346344Y-113540811D01*
X129350188Y-113465518D01*
G37*
G36*
X127925886Y-112745673D02*
G01*
X127793384Y-112745673D01*
X127793384Y-113325078D01*
X127797832Y-113426126D01*
X127809796Y-113504832D01*
X127827517Y-113565230D01*
X127855939Y-113620152D01*
X127896516Y-113668121D01*
X127950799Y-113709883D01*
X128012689Y-113739545D01*
X128089527Y-113758694D01*
X128184783Y-113765631D01*
X128277711Y-113759590D01*
X128353455Y-113742888D01*
X128415043Y-113717088D01*
X128469370Y-113679533D01*
X128511549Y-113633021D01*
X128542782Y-113576465D01*
X128562605Y-113513804D01*
X128576010Y-113431513D01*
X128581006Y-113325078D01*
X128581006Y-112745673D01*
X128448443Y-112745673D01*
X128448443Y-113326605D01*
X128445067Y-113414890D01*
X128436372Y-113477353D01*
X128424202Y-113519923D01*
X128404146Y-113558235D01*
X128376644Y-113589917D01*
X128340915Y-113615727D01*
X128300212Y-113633875D01*
X128252505Y-113645320D01*
X128196385Y-113649371D01*
X128121975Y-113644279D01*
X128064660Y-113630528D01*
X128020938Y-113609782D01*
X127988046Y-113582754D01*
X127964154Y-113548358D01*
X127944665Y-113497824D01*
X127931088Y-113425981D01*
X127925886Y-113326605D01*
X127925886Y-112745673D01*
G37*
G36*
X127578328Y-113750000D02*
G01*
X127578328Y-112745673D01*
X127445765Y-112745673D01*
X127445765Y-113633740D01*
X126952578Y-113633740D01*
X126952578Y-113750000D01*
X127578328Y-113750000D01*
G37*
G36*
X126616622Y-113750000D02*
G01*
X126616622Y-113324040D01*
X127002587Y-112745673D01*
X126841386Y-112745673D01*
X126643916Y-113048595D01*
X126542128Y-113218527D01*
X126432829Y-113041024D01*
X126238839Y-112745673D01*
X126084478Y-112745673D01*
X126484120Y-113324040D01*
X126484120Y-113750000D01*
X126616622Y-113750000D01*
G37*
G36*
X125005963Y-113633740D02*
G01*
X125005963Y-113750000D01*
X125667861Y-113750000D01*
X125664965Y-113706464D01*
X125653511Y-113664759D01*
X125621536Y-113599260D01*
X125572606Y-113531830D01*
X125509236Y-113465701D01*
X125411711Y-113380460D01*
X125303657Y-113286983D01*
X125233261Y-113217639D01*
X125191099Y-113167358D01*
X125157681Y-113112811D01*
X125139419Y-113063742D01*
X125133702Y-113018675D01*
X125139600Y-112971954D01*
X125156834Y-112931183D01*
X125185969Y-112894844D01*
X125223494Y-112867230D01*
X125268224Y-112850306D01*
X125322196Y-112844347D01*
X125379199Y-112850719D01*
X125425809Y-112868727D01*
X125464345Y-112898019D01*
X125493186Y-112936835D01*
X125511411Y-112985430D01*
X125518262Y-113046580D01*
X125644658Y-113033513D01*
X125632807Y-112963076D01*
X125612206Y-112904685D01*
X125583592Y-112856312D01*
X125546960Y-112816442D01*
X125502813Y-112784812D01*
X125451194Y-112761586D01*
X125390690Y-112746947D01*
X125319509Y-112741765D01*
X125247904Y-112747312D01*
X125187201Y-112762994D01*
X125135494Y-112787946D01*
X125091325Y-112822121D01*
X125054375Y-112864946D01*
X125028429Y-112911753D01*
X125012710Y-112963413D01*
X125007306Y-113021179D01*
X125013386Y-113080719D01*
X125031913Y-113139942D01*
X125062995Y-113197384D01*
X125113551Y-113262857D01*
X125181420Y-113331822D01*
X125303084Y-113439933D01*
X125403361Y-113526807D01*
X125445233Y-113566756D01*
X125474377Y-113600777D01*
X125497074Y-113633740D01*
X125005963Y-113633740D01*
G37*
G36*
X124618720Y-112748726D02*
G01*
X124678438Y-112768528D01*
X124729357Y-112800628D01*
X124772163Y-112843739D01*
X124808431Y-112898753D01*
X124837984Y-112967812D01*
X124856997Y-113041082D01*
X124869774Y-113135092D01*
X124874499Y-113254064D01*
X124869430Y-113373819D01*
X124855526Y-113471183D01*
X124834468Y-113549623D01*
X124807521Y-113612228D01*
X124775458Y-113661645D01*
X124730436Y-113706979D01*
X124678543Y-113739036D01*
X124618411Y-113758737D01*
X124547946Y-113765631D01*
X124476742Y-113758623D01*
X124416839Y-113738709D01*
X124365924Y-113706463D01*
X124323132Y-113663123D01*
X124286987Y-113607977D01*
X124257663Y-113538913D01*
X124238787Y-113465629D01*
X124226127Y-113372037D01*
X124221454Y-113254064D01*
X124221471Y-113253698D01*
X124347789Y-113253698D01*
X124352851Y-113384750D01*
X124365883Y-113477317D01*
X124384118Y-113540264D01*
X124405553Y-113581167D01*
X124437656Y-113618466D01*
X124471617Y-113643495D01*
X124508019Y-113658122D01*
X124547946Y-113663049D01*
X124587927Y-113658137D01*
X124624357Y-113643562D01*
X124658321Y-113618640D01*
X124690401Y-113581533D01*
X124711785Y-113540804D01*
X124730002Y-113477919D01*
X124743036Y-113385209D01*
X124748103Y-113253698D01*
X124742720Y-113123396D01*
X124728674Y-113028599D01*
X124708656Y-112961652D01*
X124684600Y-112915971D01*
X124656548Y-112884057D01*
X124625194Y-112862087D01*
X124589861Y-112848894D01*
X124549351Y-112844347D01*
X124508649Y-112849277D01*
X124471768Y-112863860D01*
X124437603Y-112888702D01*
X124405553Y-112925558D01*
X124384169Y-112966121D01*
X124365932Y-113028942D01*
X124352871Y-113121772D01*
X124347789Y-113253698D01*
X124221471Y-113253698D01*
X124227844Y-113112621D01*
X124243986Y-113017088D01*
X124271668Y-112933757D01*
X124306146Y-112867978D01*
X124335279Y-112829946D01*
X124368649Y-112798907D01*
X124406591Y-112774249D01*
X124448229Y-112756549D01*
X124495021Y-112745582D01*
X124547946Y-112741765D01*
X124618720Y-112748726D01*
G37*
G36*
X123450624Y-113633740D02*
G01*
X123450624Y-113750000D01*
X124112522Y-113750000D01*
X124109627Y-113706464D01*
X124098173Y-113664759D01*
X124066198Y-113599260D01*
X124017267Y-113531830D01*
X123953898Y-113465701D01*
X123856372Y-113380460D01*
X123748318Y-113286983D01*
X123677922Y-113217639D01*
X123635760Y-113167358D01*
X123602343Y-113112811D01*
X123584080Y-113063742D01*
X123578363Y-113018675D01*
X123584262Y-112971954D01*
X123601495Y-112931183D01*
X123630631Y-112894844D01*
X123668156Y-112867230D01*
X123712886Y-112850306D01*
X123766857Y-112844347D01*
X123823860Y-112850719D01*
X123870471Y-112868727D01*
X123909007Y-112898019D01*
X123937848Y-112936835D01*
X123956072Y-112985430D01*
X123962923Y-113046580D01*
X124089319Y-113033513D01*
X124077469Y-112963076D01*
X124056868Y-112904685D01*
X124028253Y-112856312D01*
X123991622Y-112816442D01*
X123947474Y-112784812D01*
X123895855Y-112761586D01*
X123835351Y-112746947D01*
X123764171Y-112741765D01*
X123692566Y-112747312D01*
X123631863Y-112762994D01*
X123580156Y-112787946D01*
X123535987Y-112822121D01*
X123499037Y-112864946D01*
X123473090Y-112911753D01*
X123457371Y-112963413D01*
X123451967Y-113021179D01*
X123458048Y-113080719D01*
X123476575Y-113139942D01*
X123507657Y-113197384D01*
X123558213Y-113262857D01*
X123626081Y-113331822D01*
X123747745Y-113439933D01*
X123848023Y-113526807D01*
X123889895Y-113566756D01*
X123919038Y-113600777D01*
X123941735Y-113633740D01*
X123450624Y-113633740D01*
G37*
G36*
X123027842Y-112746641D02*
G01*
X123083246Y-112760693D01*
X123132737Y-112783496D01*
X123177247Y-112815235D01*
X123217372Y-112856681D01*
X123252389Y-112909110D01*
X123281617Y-112974802D01*
X123304319Y-113056328D01*
X123319236Y-113156708D01*
X123324656Y-113279344D01*
X123319708Y-113389231D01*
X123306140Y-113478405D01*
X123285571Y-113550140D01*
X123259179Y-113607332D01*
X123227630Y-113652424D01*
X123175250Y-113702201D01*
X123116938Y-113737104D01*
X123051453Y-113758303D01*
X122976915Y-113765631D01*
X122918012Y-113760684D01*
X122864628Y-113746263D01*
X122815715Y-113722522D01*
X122772184Y-113689956D01*
X122735074Y-113648894D01*
X122704035Y-113598264D01*
X122681527Y-113542944D01*
X122667964Y-113484633D01*
X122663866Y-113429309D01*
X122789092Y-113429309D01*
X122795926Y-113499272D01*
X122814931Y-113555240D01*
X122845085Y-113600218D01*
X122885698Y-113635682D01*
X122929801Y-113656161D01*
X122978991Y-113663049D01*
X123030599Y-113655584D01*
X123080779Y-113632641D01*
X123110281Y-113609708D01*
X123135374Y-113580509D01*
X123156250Y-113544164D01*
X123176506Y-113484614D01*
X123183239Y-113422470D01*
X123176371Y-113360138D01*
X123156897Y-113308668D01*
X123125170Y-113265666D01*
X123083381Y-113232261D01*
X123036805Y-113212554D01*
X122983754Y-113205826D01*
X122930352Y-113212631D01*
X122884530Y-113232393D01*
X122844413Y-113265666D01*
X122814591Y-113308599D01*
X122795835Y-113362160D01*
X122789092Y-113429309D01*
X122663866Y-113429309D01*
X122663368Y-113422592D01*
X122669161Y-113351687D01*
X122685745Y-113289989D01*
X122712535Y-113235872D01*
X122749769Y-113188119D01*
X122795921Y-113147949D01*
X122845567Y-113119957D01*
X122899562Y-113103130D01*
X122959146Y-113097383D01*
X123005309Y-113101012D01*
X123050014Y-113111870D01*
X123093785Y-113130172D01*
X123133734Y-113155370D01*
X123169828Y-113188480D01*
X123202351Y-113230434D01*
X123197081Y-113130318D01*
X123184839Y-113055193D01*
X123167547Y-113000052D01*
X123141457Y-112948775D01*
X123110919Y-112908262D01*
X123075956Y-112876953D01*
X123044999Y-112858941D01*
X123010908Y-112848075D01*
X122972824Y-112844347D01*
X122926290Y-112850203D01*
X122885807Y-112867286D01*
X122849848Y-112896127D01*
X122824786Y-112934732D01*
X122803381Y-112999685D01*
X122681137Y-112990160D01*
X122693010Y-112933130D01*
X122712191Y-112884535D01*
X122738333Y-112843066D01*
X122771629Y-112807772D01*
X122811030Y-112779475D01*
X122855743Y-112758972D01*
X122906749Y-112746224D01*
X122965314Y-112741765D01*
X123027842Y-112746641D01*
G37*
D11*
X138464000Y-97883232D02*
X138464000Y-100168947D01*
X139606857Y-99026089D02*
X137321142Y-99026089D01*
M02*
