%TF.GenerationSoftware,KiCad,Pcbnew,10.0.4*%
%TF.CreationDate,2026-07-15T17:26:48+05:30*%
%TF.ProjectId,water alaram,77617465-7220-4616-9c61-72616d2e6b69,vJULY 2026*%
%TF.SameCoordinates,Original*%
%TF.FileFunction,Copper,L1,Top*%
%TF.FilePolarity,Positive*%
%FSLAX46Y46*%
G04 Gerber Fmt 4.6, Leading zero omitted, Abs format (unit mm)*
G04 Created by KiCad (PCBNEW 10.0.4) date 2026-07-15 17:26:48*
%MOMM*%
%LPD*%
G01*
G04 APERTURE LIST*
G04 Aperture macros list*
%AMRoundRect*
0 Rectangle with rounded corners*
0 $1 Rounding radius*
0 $2 $3 $4 $5 $6 $7 $8 $9 X,Y pos of 4 corners*
0 Add a 4 corners polygon primitive as box body*
4,1,4,$2,$3,$4,$5,$6,$7,$8,$9,$2,$3,0*
0 Add four circle primitives for the rounded corners*
1,1,$1+$1,$2,$3*
1,1,$1+$1,$4,$5*
1,1,$1+$1,$6,$7*
1,1,$1+$1,$8,$9*
0 Add four rect primitives between the rounded corners*
20,1,$1+$1,$2,$3,$4,$5,0*
20,1,$1+$1,$4,$5,$6,$7,0*
20,1,$1+$1,$6,$7,$8,$9,0*
20,1,$1+$1,$8,$9,$2,$3,0*%
G04 Aperture macros list end*
%TA.AperFunction,ComponentPad*%
%ADD10R,2.000000X4.600000*%
%TD*%
%TA.AperFunction,ComponentPad*%
%ADD11O,2.000000X4.200000*%
%TD*%
%TA.AperFunction,ComponentPad*%
%ADD12C,1.600000*%
%TD*%
%TA.AperFunction,ComponentPad*%
%ADD13C,1.400000*%
%TD*%
%TA.AperFunction,ComponentPad*%
%ADD14R,2.000000X2.000000*%
%TD*%
%TA.AperFunction,ComponentPad*%
%ADD15C,2.000000*%
%TD*%
%TA.AperFunction,ComponentPad*%
%ADD16RoundRect,0.250000X1.050000X-1.050000X1.050000X1.050000X-1.050000X1.050000X-1.050000X-1.050000X0*%
%TD*%
%TA.AperFunction,ComponentPad*%
%ADD17C,2.600000*%
%TD*%
%TA.AperFunction,ComponentPad*%
%ADD18R,1.800000X1.100000*%
%TD*%
%TA.AperFunction,ComponentPad*%
%ADD19RoundRect,0.275000X-0.625000X0.275000X-0.625000X-0.275000X0.625000X-0.275000X0.625000X0.275000X0*%
%TD*%
%TA.AperFunction,ComponentPad*%
%ADD20R,1.800000X1.800000*%
%TD*%
%TA.AperFunction,ComponentPad*%
%ADD21C,1.800000*%
%TD*%
%TA.AperFunction,ViaPad*%
%ADD22C,0.600000*%
%TD*%
%TA.AperFunction,Conductor*%
%ADD23C,0.200000*%
%TD*%
G04 APERTURE END LIST*
D10*
%TO.P,J1,1*%
%TO.N,VCC*%
X155670000Y-102620000D03*
D11*
%TO.P,J1,2*%
%TO.N,GND*%
X161970000Y-102620000D03*
%TD*%
D12*
%TO.P,C1,1*%
%TO.N,/gate*%
X158020000Y-87920000D03*
%TO.P,C1,2*%
%TO.N,GND*%
X158020000Y-90420000D03*
%TD*%
D13*
%TO.P,R2,1*%
%TO.N,Net-(D1-K)*%
X148723949Y-80123949D03*
%TO.P,R2,2*%
%TO.N,GND*%
X152316051Y-83716051D03*
%TD*%
D14*
%TO.P,BZ1,1,+_1*%
%TO.N,VCC*%
X138600000Y-101940000D03*
D15*
%TO.P,BZ1,2,-_2*%
%TO.N,Net-(BZ1--)*%
X138600000Y-86940000D03*
%TD*%
D16*
%TO.P,J2,1,Pin_1_1*%
%TO.N,VCC*%
X165340000Y-94360000D03*
D17*
%TO.P,J2,2,Pin_2_2*%
%TO.N,/gate*%
X165340000Y-89360000D03*
%TD*%
D18*
%TO.P,Q1,1,S_1*%
%TO.N,GND*%
X155860000Y-93160000D03*
D19*
%TO.P,Q1,2,G_2*%
%TO.N,/gate*%
X157930000Y-94430000D03*
%TO.P,Q1,3,D_3*%
%TO.N,Net-(BZ1--)*%
X155860000Y-95700000D03*
%TD*%
D20*
%TO.P,D1,1,K_1*%
%TO.N,Net-(D1-K)*%
X155995000Y-81030000D03*
D21*
%TO.P,D1,2,A_2*%
%TO.N,VCC*%
X158535000Y-81030000D03*
%TD*%
D13*
%TO.P,R1,1*%
%TO.N,/gate*%
X155390000Y-85470000D03*
%TO.P,R1,2*%
%TO.N,GND*%
X155390000Y-90550000D03*
%TD*%
D22*
%TO.N,/gate*%
X152880000Y-90940000D03*
%TD*%
%TO.N,/gate*%
D23*
X152880000Y-88460000D02*
X152880000Y-91050000D01*
X155360000Y-85360000D02*
X155360000Y-85980000D01*
X155360000Y-85980000D02*
X152880000Y-88460000D01*
%TO.N,Net-(D1-K)*%
X148760000Y-80080000D02*
X154730000Y-80080000D01*
X154730000Y-80080000D02*
X155740000Y-81090000D01*
%TO.N,Net-(BZ1--)*%
X148950000Y-96510000D02*
X155450000Y-96510000D01*
X155450000Y-96510000D02*
X156260000Y-95700000D01*
X139490000Y-87050000D02*
X148950000Y-96510000D01*
%TD*%
%TA.AperFunction,Conductor*%
%TO.N,GND*%
G36*
X167893736Y-76980726D02*
G01*
X168183796Y-76998271D01*
X168198659Y-77000076D01*
X168480797Y-77051780D01*
X168495334Y-77055363D01*
X168769182Y-77140698D01*
X168783163Y-77146000D01*
X169044734Y-77263724D01*
X169057987Y-77270680D01*
X169303458Y-77419071D01*
X169315776Y-77427573D01*
X169541573Y-77604474D01*
X169552781Y-77614404D01*
X169755595Y-77817218D01*
X169765525Y-77828426D01*
X169942422Y-78054217D01*
X169950928Y-78066541D01*
X170099319Y-78312012D01*
X170106277Y-78325269D01*
X170223994Y-78586823D01*
X170229304Y-78600825D01*
X170314635Y-78874664D01*
X170318219Y-78889202D01*
X170369923Y-79171340D01*
X170371728Y-79186205D01*
X170389274Y-79476263D01*
X170389500Y-79483750D01*
X170389500Y-112416249D01*
X170389274Y-112423736D01*
X170371728Y-112713794D01*
X170369923Y-112728659D01*
X170318219Y-113010797D01*
X170314635Y-113025335D01*
X170229304Y-113299174D01*
X170223994Y-113313176D01*
X170106277Y-113574730D01*
X170099319Y-113587987D01*
X169950928Y-113833458D01*
X169942422Y-113845782D01*
X169765525Y-114071573D01*
X169755595Y-114082781D01*
X169552781Y-114285595D01*
X169541573Y-114295525D01*
X169315782Y-114472422D01*
X169303458Y-114480928D01*
X169057987Y-114629319D01*
X169044730Y-114636277D01*
X168783176Y-114753994D01*
X168769174Y-114759304D01*
X168495335Y-114844635D01*
X168480797Y-114848219D01*
X168198659Y-114899923D01*
X168183794Y-114901728D01*
X167893736Y-114919274D01*
X167886249Y-114919500D01*
X122003751Y-114919500D01*
X121996264Y-114919274D01*
X121706205Y-114901728D01*
X121691340Y-114899923D01*
X121409202Y-114848219D01*
X121394664Y-114844635D01*
X121120825Y-114759304D01*
X121106827Y-114753995D01*
X120954096Y-114685256D01*
X120845269Y-114636277D01*
X120832012Y-114629319D01*
X120586541Y-114480928D01*
X120574217Y-114472422D01*
X120348426Y-114295525D01*
X120337218Y-114285595D01*
X120134404Y-114082781D01*
X120124474Y-114071573D01*
X119947573Y-113845776D01*
X119939071Y-113833458D01*
X119790680Y-113587987D01*
X119783722Y-113574730D01*
X119666000Y-113313163D01*
X119660698Y-113299182D01*
X119575363Y-113025334D01*
X119571780Y-113010797D01*
X119533931Y-112804265D01*
X119520075Y-112728657D01*
X119518271Y-112713794D01*
X119500726Y-112423736D01*
X119500500Y-112416249D01*
X119500500Y-111288711D01*
X162139500Y-111288711D01*
X162139500Y-111531288D01*
X162171161Y-111771785D01*
X162233947Y-112006104D01*
X162326773Y-112230205D01*
X162326776Y-112230212D01*
X162448064Y-112440289D01*
X162448066Y-112440292D01*
X162448067Y-112440293D01*
X162595733Y-112632736D01*
X162595739Y-112632743D01*
X162767256Y-112804260D01*
X162767262Y-112804265D01*
X162959711Y-112951936D01*
X163169788Y-113073224D01*
X163393900Y-113166054D01*
X163628211Y-113228838D01*
X163808586Y-113252584D01*
X163868711Y-113260500D01*
X163868712Y-113260500D01*
X164111289Y-113260500D01*
X164159388Y-113254167D01*
X164351789Y-113228838D01*
X164586100Y-113166054D01*
X164810212Y-113073224D01*
X165020289Y-112951936D01*
X165212738Y-112804265D01*
X165384265Y-112632738D01*
X165531936Y-112440289D01*
X165653224Y-112230212D01*
X165746054Y-112006100D01*
X165808838Y-111771789D01*
X165840500Y-111531288D01*
X165840500Y-111288712D01*
X165808838Y-111048211D01*
X165746054Y-110813900D01*
X165653224Y-110589788D01*
X165531936Y-110379711D01*
X165384265Y-110187262D01*
X165384260Y-110187256D01*
X165212743Y-110015739D01*
X165212736Y-110015733D01*
X165020293Y-109868067D01*
X165020292Y-109868066D01*
X165020289Y-109868064D01*
X164810212Y-109746776D01*
X164810205Y-109746773D01*
X164586104Y-109653947D01*
X164351785Y-109591161D01*
X164111289Y-109559500D01*
X164111288Y-109559500D01*
X163868712Y-109559500D01*
X163868711Y-109559500D01*
X163628214Y-109591161D01*
X163393895Y-109653947D01*
X163169794Y-109746773D01*
X163169785Y-109746777D01*
X162959706Y-109868067D01*
X162767263Y-110015733D01*
X162767256Y-110015739D01*
X162595739Y-110187256D01*
X162595733Y-110187263D01*
X162448067Y-110379706D01*
X162326777Y-110589785D01*
X162326773Y-110589794D01*
X162233947Y-110813895D01*
X162171161Y-111048214D01*
X162139500Y-111288711D01*
X119500500Y-111288711D01*
X119500500Y-100892135D01*
X137099500Y-100892135D01*
X137099500Y-102987870D01*
X137099501Y-102987876D01*
X137105908Y-103047483D01*
X137156202Y-103182328D01*
X137156206Y-103182335D01*
X137242452Y-103297544D01*
X137242455Y-103297547D01*
X137357664Y-103383793D01*
X137357671Y-103383797D01*
X137492517Y-103434091D01*
X137492516Y-103434091D01*
X137499444Y-103434835D01*
X137552127Y-103440500D01*
X139647872Y-103440499D01*
X139707483Y-103434091D01*
X139842331Y-103383796D01*
X139957546Y-103297546D01*
X140043796Y-103182331D01*
X140094091Y-103047483D01*
X140100500Y-102987873D01*
X140100499Y-100892128D01*
X140094091Y-100832517D01*
X140057282Y-100733828D01*
X140043797Y-100697671D01*
X140043793Y-100697664D01*
X139957547Y-100582455D01*
X139957544Y-100582452D01*
X139842335Y-100496206D01*
X139842328Y-100496202D01*
X139707482Y-100445908D01*
X139707483Y-100445908D01*
X139647883Y-100439501D01*
X139647881Y-100439500D01*
X139647873Y-100439500D01*
X139647864Y-100439500D01*
X137552129Y-100439500D01*
X137552123Y-100439501D01*
X137492516Y-100445908D01*
X137357671Y-100496202D01*
X137357664Y-100496206D01*
X137242455Y-100582452D01*
X137242452Y-100582455D01*
X137156206Y-100697664D01*
X137156202Y-100697671D01*
X137105908Y-100832517D01*
X137099501Y-100892116D01*
X137099501Y-100892123D01*
X137099500Y-100892135D01*
X119500500Y-100892135D01*
X119500500Y-100272135D01*
X154169500Y-100272135D01*
X154169500Y-104967870D01*
X154169501Y-104967876D01*
X154175908Y-105027483D01*
X154226202Y-105162328D01*
X154226206Y-105162335D01*
X154312452Y-105277544D01*
X154312455Y-105277547D01*
X154427664Y-105363793D01*
X154427671Y-105363797D01*
X154562517Y-105414091D01*
X154562516Y-105414091D01*
X154569444Y-105414835D01*
X154622127Y-105420500D01*
X156717872Y-105420499D01*
X156777483Y-105414091D01*
X156912331Y-105363796D01*
X157027546Y-105277546D01*
X157113796Y-105162331D01*
X157164091Y-105027483D01*
X157170500Y-104967873D01*
X157170499Y-101401947D01*
X160470000Y-101401947D01*
X160470000Y-102370000D01*
X161470000Y-102370000D01*
X161470000Y-102870000D01*
X160470000Y-102870000D01*
X160470000Y-103838052D01*
X160506934Y-104071247D01*
X160579897Y-104295802D01*
X160687085Y-104506171D01*
X160825866Y-104697186D01*
X160992813Y-104864133D01*
X161183828Y-105002914D01*
X161394195Y-105110102D01*
X161618744Y-105183063D01*
X161618750Y-105183065D01*
X161720000Y-105199101D01*
X161720000Y-104153012D01*
X161777007Y-104185925D01*
X161904174Y-104220000D01*
X162035826Y-104220000D01*
X162162993Y-104185925D01*
X162220000Y-104153012D01*
X162220000Y-105199100D01*
X162321249Y-105183065D01*
X162321255Y-105183063D01*
X162545804Y-105110102D01*
X162756171Y-105002914D01*
X162947186Y-104864133D01*
X163114133Y-104697186D01*
X163252914Y-104506171D01*
X163360102Y-104295802D01*
X163433065Y-104071247D01*
X163470000Y-103838052D01*
X163470000Y-102870000D01*
X162470000Y-102870000D01*
X162470000Y-102370000D01*
X163470000Y-102370000D01*
X163470000Y-101401947D01*
X163433065Y-101168752D01*
X163360102Y-100944197D01*
X163252914Y-100733828D01*
X163114133Y-100542813D01*
X162947186Y-100375866D01*
X162756171Y-100237085D01*
X162545802Y-100129897D01*
X162321247Y-100056934D01*
X162220000Y-100040897D01*
X162220000Y-101086988D01*
X162162993Y-101054075D01*
X162035826Y-101020000D01*
X161904174Y-101020000D01*
X161777007Y-101054075D01*
X161720000Y-101086988D01*
X161720000Y-100040897D01*
X161618752Y-100056934D01*
X161394197Y-100129897D01*
X161183828Y-100237085D01*
X160992813Y-100375866D01*
X160825866Y-100542813D01*
X160687085Y-100733828D01*
X160579897Y-100944197D01*
X160506934Y-101168752D01*
X160470000Y-101401947D01*
X157170499Y-101401947D01*
X157170499Y-100272128D01*
X157164091Y-100212517D01*
X157113796Y-100077669D01*
X157113795Y-100077668D01*
X157113793Y-100077664D01*
X157027547Y-99962455D01*
X157027544Y-99962452D01*
X156912335Y-99876206D01*
X156912328Y-99876202D01*
X156777482Y-99825908D01*
X156777483Y-99825908D01*
X156717883Y-99819501D01*
X156717881Y-99819500D01*
X156717873Y-99819500D01*
X156717864Y-99819500D01*
X154622129Y-99819500D01*
X154622123Y-99819501D01*
X154562516Y-99825908D01*
X154427671Y-99876202D01*
X154427664Y-99876206D01*
X154312455Y-99962452D01*
X154312452Y-99962455D01*
X154226206Y-100077664D01*
X154226202Y-100077671D01*
X154175908Y-100212517D01*
X154169501Y-100272116D01*
X154169501Y-100272123D01*
X154169500Y-100272135D01*
X119500500Y-100272135D01*
X119500500Y-86821902D01*
X137099500Y-86821902D01*
X137099500Y-87058097D01*
X137136446Y-87291368D01*
X137209433Y-87515996D01*
X137315975Y-87725095D01*
X137316657Y-87726433D01*
X137455483Y-87917510D01*
X137622490Y-88084517D01*
X137813567Y-88223343D01*
X137912991Y-88274002D01*
X138024003Y-88330566D01*
X138024005Y-88330566D01*
X138024008Y-88330568D01*
X138107050Y-88357550D01*
X138248631Y-88403553D01*
X138481903Y-88440500D01*
X138481908Y-88440500D01*
X138718097Y-88440500D01*
X138951368Y-88403553D01*
X139175992Y-88330568D01*
X139386433Y-88223343D01*
X139548462Y-88105621D01*
X139614264Y-88082143D01*
X139682318Y-88097968D01*
X139709025Y-88118260D01*
X148465139Y-96874374D01*
X148465149Y-96874385D01*
X148469479Y-96878715D01*
X148469480Y-96878716D01*
X148581284Y-96990520D01*
X148668095Y-97040639D01*
X148668097Y-97040641D01*
X148718213Y-97069576D01*
X148718215Y-97069577D01*
X148870942Y-97110500D01*
X148870943Y-97110500D01*
X155363331Y-97110500D01*
X155363347Y-97110501D01*
X155370943Y-97110501D01*
X155529054Y-97110501D01*
X155529057Y-97110501D01*
X155681785Y-97069577D01*
X155731904Y-97040639D01*
X155818716Y-96990520D01*
X155930520Y-96878716D01*
X155930520Y-96878714D01*
X155940728Y-96868507D01*
X155940731Y-96868503D01*
X156022418Y-96786818D01*
X156083741Y-96753333D01*
X156110098Y-96750500D01*
X156528555Y-96750500D01*
X156528556Y-96750499D01*
X156658657Y-96735841D01*
X156823606Y-96678122D01*
X156971576Y-96585147D01*
X157095147Y-96461576D01*
X157188122Y-96313606D01*
X157245841Y-96148657D01*
X157260500Y-96018552D01*
X157260500Y-95604500D01*
X157280185Y-95537461D01*
X157332989Y-95491706D01*
X157384500Y-95480500D01*
X158598555Y-95480500D01*
X158598556Y-95480499D01*
X158728657Y-95465841D01*
X158893606Y-95408122D01*
X159041576Y-95315147D01*
X159165147Y-95191576D01*
X159258122Y-95043606D01*
X159315841Y-94878657D01*
X159330500Y-94748552D01*
X159330500Y-94111448D01*
X159315841Y-93981343D01*
X159258122Y-93816394D01*
X159165147Y-93668424D01*
X159041576Y-93544853D01*
X158893606Y-93451878D01*
X158893605Y-93451877D01*
X158893604Y-93451877D01*
X158728658Y-93394159D01*
X158728648Y-93394157D01*
X158603474Y-93380054D01*
X158603473Y-93380053D01*
X158598560Y-93379500D01*
X158598552Y-93379500D01*
X157261448Y-93379500D01*
X157261441Y-93379500D01*
X157131351Y-93394157D01*
X157131341Y-93394159D01*
X157105960Y-93403041D01*
X157065005Y-93410000D01*
X156540330Y-93410000D01*
X156560075Y-93390255D01*
X156609444Y-93304745D01*
X156621438Y-93259983D01*
X163539500Y-93259983D01*
X163539500Y-95460001D01*
X163539501Y-95460018D01*
X163550000Y-95562796D01*
X163550001Y-95562799D01*
X163563820Y-95604500D01*
X163605186Y-95729334D01*
X163697288Y-95878656D01*
X163821344Y-96002712D01*
X163970666Y-96094814D01*
X164137203Y-96149999D01*
X164239991Y-96160500D01*
X166440008Y-96160499D01*
X166542797Y-96149999D01*
X166709334Y-96094814D01*
X166858656Y-96002712D01*
X166982712Y-95878656D01*
X167074814Y-95729334D01*
X167129999Y-95562797D01*
X167140500Y-95460009D01*
X167140499Y-93259992D01*
X167129999Y-93157203D01*
X167074814Y-92990666D01*
X166982712Y-92841344D01*
X166858656Y-92717288D01*
X166709334Y-92625186D01*
X166542797Y-92570001D01*
X166542795Y-92570000D01*
X166440010Y-92559500D01*
X164239998Y-92559500D01*
X164239981Y-92559501D01*
X164137203Y-92570000D01*
X164137200Y-92570001D01*
X163970668Y-92625185D01*
X163970663Y-92625187D01*
X163821342Y-92717289D01*
X163697289Y-92841342D01*
X163605187Y-92990663D01*
X163605186Y-92990666D01*
X163550001Y-93157203D01*
X163550001Y-93157204D01*
X163550000Y-93157204D01*
X163539500Y-93259983D01*
X156621438Y-93259983D01*
X156635000Y-93209370D01*
X156635000Y-93110630D01*
X156609444Y-93015255D01*
X156560075Y-92929745D01*
X156540330Y-92910000D01*
X157260000Y-92910000D01*
X157260000Y-92562172D01*
X157259999Y-92562155D01*
X157253598Y-92502627D01*
X157253596Y-92502620D01*
X157203354Y-92367913D01*
X157203350Y-92367906D01*
X157117190Y-92252812D01*
X157117187Y-92252809D01*
X157002093Y-92166649D01*
X157002086Y-92166645D01*
X156867379Y-92116403D01*
X156867372Y-92116401D01*
X156807844Y-92110000D01*
X156110000Y-92110000D01*
X156110000Y-92813589D01*
X156029745Y-92859925D01*
X155959925Y-92929745D01*
X155910556Y-93015255D01*
X155885000Y-93110630D01*
X155885000Y-93209370D01*
X155910556Y-93304745D01*
X155959925Y-93390255D01*
X156029745Y-93460075D01*
X156110000Y-93506410D01*
X156110000Y-94210000D01*
X156405500Y-94210000D01*
X156414185Y-94212550D01*
X156423147Y-94211262D01*
X156447187Y-94222240D01*
X156472539Y-94229685D01*
X156478466Y-94236525D01*
X156486703Y-94240287D01*
X156500992Y-94262521D01*
X156518294Y-94282489D01*
X156520581Y-94293003D01*
X156524477Y-94299065D01*
X156529500Y-94334000D01*
X156529500Y-94525500D01*
X156509815Y-94592539D01*
X156457011Y-94638294D01*
X156405500Y-94649500D01*
X155191441Y-94649500D01*
X155061351Y-94664157D01*
X155061341Y-94664159D01*
X154896395Y-94721877D01*
X154748423Y-94814853D01*
X154624853Y-94938423D01*
X154531877Y-95086395D01*
X154474159Y-95251341D01*
X154474157Y-95251351D01*
X154459500Y-95381441D01*
X154459500Y-95785500D01*
X154439815Y-95852539D01*
X154387011Y-95898294D01*
X154335500Y-95909500D01*
X149250097Y-95909500D01*
X149183058Y-95889815D01*
X149162416Y-95873181D01*
X147047079Y-93757844D01*
X154460000Y-93757844D01*
X154466401Y-93817372D01*
X154466403Y-93817379D01*
X154516645Y-93952086D01*
X154516649Y-93952093D01*
X154602809Y-94067187D01*
X154602812Y-94067190D01*
X154717906Y-94153350D01*
X154717913Y-94153354D01*
X154852620Y-94203596D01*
X154852627Y-94203598D01*
X154912155Y-94209999D01*
X154912172Y-94210000D01*
X155610000Y-94210000D01*
X155610000Y-93410000D01*
X154460000Y-93410000D01*
X154460000Y-93757844D01*
X147047079Y-93757844D01*
X145851390Y-92562155D01*
X154460000Y-92562155D01*
X154460000Y-92910000D01*
X155610000Y-92910000D01*
X155610000Y-92110000D01*
X154912155Y-92110000D01*
X154852627Y-92116401D01*
X154852620Y-92116403D01*
X154717913Y-92166645D01*
X154717906Y-92166649D01*
X154602812Y-92252809D01*
X154602809Y-92252812D01*
X154516649Y-92367906D01*
X154516645Y-92367913D01*
X154466403Y-92502620D01*
X154466401Y-92502627D01*
X154460000Y-92562155D01*
X145851390Y-92562155D01*
X144150388Y-90861153D01*
X152079500Y-90861153D01*
X152079500Y-91018846D01*
X152110261Y-91173489D01*
X152110264Y-91173501D01*
X152170602Y-91319172D01*
X152170609Y-91319185D01*
X152258210Y-91450288D01*
X152258213Y-91450292D01*
X152369707Y-91561786D01*
X152369711Y-91561789D01*
X152500814Y-91649390D01*
X152500827Y-91649397D01*
X152646498Y-91709735D01*
X152646503Y-91709737D01*
X152801153Y-91740499D01*
X152801156Y-91740500D01*
X152801158Y-91740500D01*
X152958844Y-91740500D01*
X152958845Y-91740499D01*
X153113497Y-91709737D01*
X153259179Y-91649394D01*
X153390289Y-91561789D01*
X153394196Y-91557882D01*
X154735669Y-91557882D01*
X154735670Y-91557883D01*
X154761059Y-91576329D01*
X154929362Y-91662085D01*
X155108997Y-91720451D01*
X155295553Y-91750000D01*
X155484447Y-91750000D01*
X155671002Y-91720451D01*
X155850637Y-91662085D01*
X156018937Y-91576331D01*
X156044328Y-91557883D01*
X156044328Y-91557882D01*
X156026342Y-91539896D01*
X155390001Y-90903554D01*
X155390000Y-90903554D01*
X154735669Y-91557882D01*
X153394196Y-91557882D01*
X153501789Y-91450289D01*
X153589394Y-91319179D01*
X153649737Y-91173497D01*
X153680500Y-91018842D01*
X153680500Y-90861158D01*
X153680500Y-90861155D01*
X153680499Y-90861153D01*
X153677462Y-90845884D01*
X153649737Y-90706503D01*
X153603998Y-90596078D01*
X153589397Y-90560827D01*
X153589390Y-90560814D01*
X153561836Y-90519577D01*
X153519056Y-90455552D01*
X154190000Y-90455552D01*
X154190000Y-90644447D01*
X154219548Y-90831002D01*
X154277914Y-91010637D01*
X154363666Y-91178933D01*
X154382116Y-91204328D01*
X155036446Y-90550000D01*
X155036446Y-90549999D01*
X154990369Y-90503922D01*
X155040000Y-90503922D01*
X155040000Y-90596078D01*
X155063852Y-90685095D01*
X155109930Y-90764905D01*
X155175095Y-90830070D01*
X155254905Y-90876148D01*
X155343922Y-90900000D01*
X155436078Y-90900000D01*
X155525095Y-90876148D01*
X155604905Y-90830070D01*
X155670070Y-90764905D01*
X155716148Y-90685095D01*
X155740000Y-90596078D01*
X155740000Y-90549999D01*
X155743554Y-90549999D01*
X155743554Y-90550000D01*
X156397882Y-91204328D01*
X156397883Y-91204328D01*
X156416331Y-91178937D01*
X156502086Y-91010635D01*
X156555615Y-90845887D01*
X156595052Y-90788211D01*
X156659410Y-90761012D01*
X156728257Y-90772926D01*
X156779733Y-90820170D01*
X156791476Y-90845884D01*
X156815242Y-90919027D01*
X156908141Y-91101350D01*
X156908147Y-91101359D01*
X156940523Y-91145921D01*
X156940524Y-91145922D01*
X157620000Y-90466446D01*
X157620000Y-90472661D01*
X157647259Y-90574394D01*
X157699920Y-90665606D01*
X157774394Y-90740080D01*
X157865606Y-90792741D01*
X157967339Y-90820000D01*
X157973553Y-90820000D01*
X157294076Y-91499474D01*
X157338650Y-91531859D01*
X157520968Y-91624755D01*
X157715582Y-91687990D01*
X157917683Y-91720000D01*
X158122317Y-91720000D01*
X158324417Y-91687990D01*
X158519031Y-91624755D01*
X158701349Y-91531859D01*
X158745921Y-91499474D01*
X158066447Y-90820000D01*
X158072661Y-90820000D01*
X158174394Y-90792741D01*
X158265606Y-90740080D01*
X158340080Y-90665606D01*
X158392741Y-90574394D01*
X158420000Y-90472661D01*
X158420000Y-90466447D01*
X159099474Y-91145921D01*
X159131859Y-91101349D01*
X159224755Y-90919031D01*
X159287990Y-90724417D01*
X159320000Y-90522317D01*
X159320000Y-90317682D01*
X159287990Y-90115582D01*
X159224755Y-89920968D01*
X159131859Y-89738650D01*
X159099474Y-89694077D01*
X159099474Y-89694076D01*
X158420000Y-90373551D01*
X158420000Y-90367339D01*
X158392741Y-90265606D01*
X158340080Y-90174394D01*
X158265606Y-90099920D01*
X158174394Y-90047259D01*
X158072661Y-90020000D01*
X158066446Y-90020000D01*
X158745841Y-89340605D01*
X158639704Y-89276359D01*
X158619067Y-89253797D01*
X158606571Y-89241995D01*
X163539500Y-89241995D01*
X163539500Y-89478004D01*
X163539501Y-89478020D01*
X163570306Y-89712010D01*
X163631394Y-89939993D01*
X163721714Y-90158045D01*
X163721719Y-90158056D01*
X163792677Y-90280957D01*
X163839727Y-90362450D01*
X163839729Y-90362453D01*
X163839730Y-90362454D01*
X163983406Y-90549697D01*
X163983412Y-90549704D01*
X164150295Y-90716587D01*
X164150302Y-90716593D01*
X164180911Y-90740080D01*
X164337550Y-90860273D01*
X164439315Y-90919027D01*
X164541943Y-90978280D01*
X164541948Y-90978282D01*
X164541951Y-90978284D01*
X164760007Y-91068606D01*
X164987986Y-91129693D01*
X165221989Y-91160500D01*
X165221996Y-91160500D01*
X165458004Y-91160500D01*
X165458011Y-91160500D01*
X165692014Y-91129693D01*
X165919993Y-91068606D01*
X166138049Y-90978284D01*
X166342450Y-90860273D01*
X166529699Y-90716592D01*
X166696592Y-90549699D01*
X166840273Y-90362450D01*
X166958284Y-90158049D01*
X167048606Y-89939993D01*
X167109693Y-89712014D01*
X167140500Y-89478011D01*
X167140500Y-89241989D01*
X167109693Y-89007986D01*
X167048606Y-88780007D01*
X166958284Y-88561951D01*
X166958282Y-88561948D01*
X166958280Y-88561943D01*
X166888164Y-88440500D01*
X166840273Y-88357550D01*
X166741031Y-88228215D01*
X166696592Y-88170300D01*
X166529704Y-88003412D01*
X166529697Y-88003406D01*
X166342454Y-87859730D01*
X166342453Y-87859729D01*
X166342450Y-87859727D01*
X166260957Y-87812677D01*
X166138056Y-87741719D01*
X166138045Y-87741714D01*
X165919993Y-87651394D01*
X165785908Y-87615466D01*
X165692014Y-87590307D01*
X165692013Y-87590306D01*
X165692010Y-87590306D01*
X165458020Y-87559501D01*
X165458017Y-87559500D01*
X165458011Y-87559500D01*
X165221989Y-87559500D01*
X165221983Y-87559500D01*
X165221979Y-87559501D01*
X164987989Y-87590306D01*
X164760006Y-87651394D01*
X164541954Y-87741714D01*
X164541943Y-87741719D01*
X164337545Y-87859730D01*
X164150302Y-88003406D01*
X164150295Y-88003412D01*
X163983412Y-88170295D01*
X163983408Y-88170300D01*
X163839730Y-88357545D01*
X163721719Y-88561943D01*
X163721714Y-88561954D01*
X163631394Y-88780006D01*
X163570306Y-89007989D01*
X163539501Y-89241979D01*
X163539500Y-89241995D01*
X158606571Y-89241995D01*
X158596825Y-89232791D01*
X158595701Y-89228252D01*
X158592547Y-89224804D01*
X158587382Y-89194659D01*
X158580030Y-89164970D01*
X158581537Y-89160546D01*
X158580748Y-89155938D01*
X158592701Y-89127785D01*
X158602567Y-89098835D01*
X158606406Y-89095508D01*
X158608055Y-89091625D01*
X158621310Y-89082593D01*
X158647621Y-89059795D01*
X158701610Y-89032287D01*
X158751144Y-88996298D01*
X158867213Y-88911971D01*
X158867215Y-88911968D01*
X158867219Y-88911966D01*
X159011966Y-88767219D01*
X159011968Y-88767215D01*
X159011971Y-88767213D01*
X159080844Y-88672416D01*
X159132287Y-88601610D01*
X159225220Y-88419219D01*
X159288477Y-88224534D01*
X159320500Y-88022352D01*
X159320500Y-87817648D01*
X159288477Y-87615466D01*
X159280302Y-87590307D01*
X159225218Y-87420776D01*
X159191503Y-87354607D01*
X159132287Y-87238390D01*
X159124556Y-87227749D01*
X159011971Y-87072786D01*
X158867213Y-86928028D01*
X158701613Y-86807715D01*
X158701612Y-86807714D01*
X158701610Y-86807713D01*
X158626548Y-86769467D01*
X158519223Y-86714781D01*
X158324534Y-86651522D01*
X158149995Y-86623878D01*
X158122352Y-86619500D01*
X157917648Y-86619500D01*
X157893329Y-86623351D01*
X157715465Y-86651522D01*
X157520776Y-86714781D01*
X157338386Y-86807715D01*
X157172786Y-86928028D01*
X157028028Y-87072786D01*
X156907715Y-87238386D01*
X156814781Y-87420776D01*
X156751522Y-87615465D01*
X156719500Y-87817648D01*
X156719500Y-88022351D01*
X156751522Y-88224534D01*
X156814781Y-88419223D01*
X156907715Y-88601613D01*
X157028028Y-88767213D01*
X157172786Y-88911971D01*
X157338385Y-89032284D01*
X157338387Y-89032285D01*
X157338390Y-89032287D01*
X157392378Y-89059795D01*
X157443174Y-89107769D01*
X157459969Y-89175590D01*
X157437432Y-89241725D01*
X157392378Y-89280765D01*
X157338644Y-89308143D01*
X157294077Y-89340523D01*
X157294077Y-89340524D01*
X157973554Y-90020000D01*
X157967339Y-90020000D01*
X157865606Y-90047259D01*
X157774394Y-90099920D01*
X157699920Y-90174394D01*
X157647259Y-90265606D01*
X157620000Y-90367339D01*
X157620000Y-90373553D01*
X156940524Y-89694077D01*
X156940523Y-89694077D01*
X156908143Y-89738644D01*
X156815244Y-89920968D01*
X156750504Y-90120217D01*
X156749459Y-90119877D01*
X156717276Y-90175922D01*
X156655249Y-90208083D01*
X156585680Y-90201604D01*
X156530658Y-90158542D01*
X156513566Y-90124696D01*
X156502086Y-90089364D01*
X156416329Y-89921059D01*
X156397883Y-89895670D01*
X156397882Y-89895669D01*
X155743554Y-90549999D01*
X155740000Y-90549999D01*
X155740000Y-90503922D01*
X155716148Y-90414905D01*
X155670070Y-90335095D01*
X155604905Y-90269930D01*
X155525095Y-90223852D01*
X155436078Y-90200000D01*
X155343922Y-90200000D01*
X155254905Y-90223852D01*
X155175095Y-90269930D01*
X155109930Y-90335095D01*
X155063852Y-90414905D01*
X155040000Y-90503922D01*
X154990369Y-90503922D01*
X154382116Y-89895669D01*
X154382116Y-89895670D01*
X154363669Y-89921060D01*
X154277914Y-90089362D01*
X154219548Y-90268997D01*
X154190000Y-90455552D01*
X153519056Y-90455552D01*
X153501398Y-90429125D01*
X153480520Y-90362447D01*
X153480500Y-90360234D01*
X153480500Y-89542116D01*
X154735669Y-89542116D01*
X155390000Y-90196446D01*
X155390001Y-90196446D01*
X156044328Y-89542116D01*
X156018933Y-89523666D01*
X155850637Y-89437914D01*
X155671002Y-89379548D01*
X155484447Y-89350000D01*
X155295553Y-89350000D01*
X155108997Y-89379548D01*
X154929362Y-89437914D01*
X154761060Y-89523669D01*
X154735670Y-89542116D01*
X154735669Y-89542116D01*
X153480500Y-89542116D01*
X153480500Y-88760097D01*
X153500185Y-88693058D01*
X153516819Y-88672416D01*
X154464140Y-87725095D01*
X154950849Y-87238386D01*
X155496694Y-86692540D01*
X155558015Y-86659057D01*
X155564930Y-86657757D01*
X155671118Y-86640940D01*
X155850832Y-86582547D01*
X156019199Y-86496760D01*
X156172073Y-86385690D01*
X156305690Y-86252073D01*
X156416760Y-86099199D01*
X156502547Y-85930832D01*
X156560940Y-85751118D01*
X156575901Y-85656657D01*
X156590500Y-85564486D01*
X156590500Y-85375513D01*
X156560940Y-85188881D01*
X156502545Y-85009163D01*
X156442548Y-84891413D01*
X156416760Y-84840801D01*
X156305690Y-84687927D01*
X156172073Y-84554310D01*
X156019199Y-84443240D01*
X155850836Y-84357454D01*
X155671118Y-84299059D01*
X155484486Y-84269500D01*
X155484481Y-84269500D01*
X155295519Y-84269500D01*
X155295514Y-84269500D01*
X155108881Y-84299059D01*
X154929163Y-84357454D01*
X154760800Y-84443240D01*
X154685717Y-84497792D01*
X154607927Y-84554310D01*
X154607925Y-84554312D01*
X154607924Y-84554312D01*
X154474312Y-84687924D01*
X154474312Y-84687925D01*
X154474310Y-84687927D01*
X154434747Y-84742380D01*
X154363240Y-84840800D01*
X154277454Y-85009163D01*
X154219059Y-85188881D01*
X154189500Y-85375513D01*
X154189500Y-85564486D01*
X154219059Y-85751118D01*
X154277454Y-85930836D01*
X154331900Y-86037690D01*
X154344796Y-86106359D01*
X154318520Y-86171100D01*
X154309096Y-86181666D01*
X152511286Y-87979478D01*
X152399481Y-88091282D01*
X152399479Y-88091285D01*
X152376670Y-88130792D01*
X152353864Y-88170295D01*
X152353861Y-88170300D01*
X152353859Y-88170302D01*
X152320425Y-88228209D01*
X152320424Y-88228210D01*
X152320423Y-88228215D01*
X152279499Y-88380943D01*
X152279499Y-88380945D01*
X152279499Y-88549046D01*
X152279500Y-88549059D01*
X152279500Y-90360234D01*
X152259815Y-90427273D01*
X152258602Y-90429125D01*
X152170609Y-90560814D01*
X152170602Y-90560827D01*
X152110264Y-90706498D01*
X152110261Y-90706510D01*
X152079500Y-90861153D01*
X144150388Y-90861153D01*
X140126986Y-86837751D01*
X140093501Y-86776428D01*
X140092194Y-86769467D01*
X140080010Y-86692542D01*
X140063553Y-86588632D01*
X140061575Y-86582545D01*
X139990566Y-86364003D01*
X139897660Y-86181666D01*
X139883343Y-86153567D01*
X139744517Y-85962490D01*
X139577510Y-85795483D01*
X139386433Y-85656657D01*
X139175996Y-85549433D01*
X138951368Y-85476446D01*
X138718097Y-85439500D01*
X138718092Y-85439500D01*
X138481908Y-85439500D01*
X138481903Y-85439500D01*
X138248631Y-85476446D01*
X138024003Y-85549433D01*
X137813566Y-85656657D01*
X137704550Y-85735862D01*
X137622490Y-85795483D01*
X137622488Y-85795485D01*
X137622487Y-85795485D01*
X137455485Y-85962487D01*
X137455485Y-85962488D01*
X137455483Y-85962490D01*
X137400847Y-86037690D01*
X137316657Y-86153566D01*
X137209433Y-86364003D01*
X137136446Y-86588631D01*
X137099500Y-86821902D01*
X119500500Y-86821902D01*
X119500500Y-83966051D01*
X151140689Y-83966051D01*
X151145599Y-83997053D01*
X151203965Y-84176688D01*
X151289721Y-84344991D01*
X151400736Y-84497792D01*
X151400740Y-84497797D01*
X151534304Y-84631361D01*
X151534309Y-84631365D01*
X151687110Y-84742380D01*
X151855413Y-84828136D01*
X152035048Y-84886502D01*
X152066051Y-84891413D01*
X152066051Y-84891412D01*
X152566051Y-84891412D01*
X152597053Y-84886502D01*
X152776688Y-84828136D01*
X152944991Y-84742380D01*
X153097792Y-84631365D01*
X153097797Y-84631361D01*
X153231361Y-84497797D01*
X153231365Y-84497792D01*
X153342380Y-84344991D01*
X153428136Y-84176688D01*
X153486502Y-83997053D01*
X153491413Y-83966051D01*
X152566051Y-83966051D01*
X152566051Y-84891412D01*
X152066051Y-84891412D01*
X152066051Y-83966051D01*
X151140689Y-83966051D01*
X119500500Y-83966051D01*
X119500500Y-83669973D01*
X151966051Y-83669973D01*
X151966051Y-83762129D01*
X151989903Y-83851146D01*
X152035981Y-83930956D01*
X152101146Y-83996121D01*
X152180956Y-84042199D01*
X152269973Y-84066051D01*
X152362129Y-84066051D01*
X152451146Y-84042199D01*
X152530956Y-83996121D01*
X152596121Y-83930956D01*
X152642199Y-83851146D01*
X152666051Y-83762129D01*
X152666051Y-83669973D01*
X152642199Y-83580956D01*
X152596121Y-83501146D01*
X152561026Y-83466051D01*
X152566051Y-83466051D01*
X153491413Y-83466051D01*
X153486502Y-83435048D01*
X153428136Y-83255413D01*
X153342380Y-83087110D01*
X153231365Y-82934309D01*
X153231361Y-82934304D01*
X153097797Y-82800740D01*
X153097792Y-82800736D01*
X152944991Y-82689721D01*
X152776686Y-82603964D01*
X152597055Y-82545600D01*
X152597046Y-82545598D01*
X152566051Y-82540688D01*
X152566051Y-83466051D01*
X152561026Y-83466051D01*
X152530956Y-83435981D01*
X152451146Y-83389903D01*
X152362129Y-83366051D01*
X152269973Y-83366051D01*
X152180956Y-83389903D01*
X152101146Y-83435981D01*
X152035981Y-83501146D01*
X151989903Y-83580956D01*
X151966051Y-83669973D01*
X119500500Y-83669973D01*
X119500500Y-83466051D01*
X151140689Y-83466051D01*
X152066051Y-83466051D01*
X152066051Y-82540688D01*
X152066050Y-82540688D01*
X152035055Y-82545598D01*
X152035046Y-82545600D01*
X151855415Y-82603964D01*
X151687110Y-82689721D01*
X151534309Y-82800736D01*
X151534304Y-82800740D01*
X151400740Y-82934304D01*
X151400736Y-82934309D01*
X151289721Y-83087110D01*
X151203965Y-83255413D01*
X151145599Y-83435048D01*
X151140689Y-83466051D01*
X119500500Y-83466051D01*
X119500500Y-80029462D01*
X147523449Y-80029462D01*
X147523449Y-80218435D01*
X147553008Y-80405067D01*
X147611403Y-80584785D01*
X147694672Y-80748209D01*
X147697189Y-80753148D01*
X147808259Y-80906022D01*
X147941876Y-81039639D01*
X148094750Y-81150709D01*
X148174296Y-81191239D01*
X148263112Y-81236494D01*
X148263114Y-81236494D01*
X148263117Y-81236496D01*
X148359446Y-81267795D01*
X148442830Y-81294889D01*
X148629463Y-81324449D01*
X148629468Y-81324449D01*
X148818435Y-81324449D01*
X149005067Y-81294889D01*
X149184781Y-81236496D01*
X149353148Y-81150709D01*
X149506022Y-81039639D01*
X149639639Y-80906022D01*
X149750709Y-80753148D01*
X149753226Y-80748207D01*
X149801198Y-80697412D01*
X149863712Y-80680500D01*
X154429903Y-80680500D01*
X154459343Y-80689144D01*
X154489330Y-80695668D01*
X154494345Y-80699422D01*
X154496942Y-80700185D01*
X154517584Y-80716819D01*
X154558181Y-80757416D01*
X154591666Y-80818739D01*
X154594500Y-80845097D01*
X154594500Y-81977870D01*
X154594501Y-81977876D01*
X154600908Y-82037483D01*
X154651202Y-82172328D01*
X154651206Y-82172335D01*
X154737452Y-82287544D01*
X154737455Y-82287547D01*
X154852664Y-82373793D01*
X154852671Y-82373797D01*
X154987517Y-82424091D01*
X154987516Y-82424091D01*
X154994444Y-82424835D01*
X155047127Y-82430500D01*
X156942872Y-82430499D01*
X157002483Y-82424091D01*
X157137331Y-82373796D01*
X157252546Y-82287546D01*
X157338796Y-82172331D01*
X157366429Y-82098243D01*
X157368601Y-82092420D01*
X157410471Y-82036486D01*
X157475936Y-82012068D01*
X157544209Y-82026919D01*
X157572464Y-82048071D01*
X157622636Y-82098243D01*
X157622641Y-82098247D01*
X157724603Y-82172326D01*
X157800978Y-82227815D01*
X157929375Y-82293237D01*
X157997393Y-82327895D01*
X157997396Y-82327896D01*
X158102221Y-82361955D01*
X158207049Y-82396015D01*
X158424778Y-82430500D01*
X158424779Y-82430500D01*
X158645221Y-82430500D01*
X158645222Y-82430500D01*
X158862951Y-82396015D01*
X159072606Y-82327895D01*
X159269022Y-82227815D01*
X159447365Y-82098242D01*
X159603242Y-81942365D01*
X159732815Y-81764022D01*
X159832895Y-81567606D01*
X159901015Y-81357951D01*
X159915149Y-81268711D01*
X162529500Y-81268711D01*
X162529500Y-81511288D01*
X162561161Y-81751785D01*
X162623947Y-81986104D01*
X162701083Y-82172326D01*
X162716776Y-82210212D01*
X162838064Y-82420289D01*
X162838066Y-82420292D01*
X162838067Y-82420293D01*
X162985733Y-82612736D01*
X162985739Y-82612743D01*
X163157256Y-82784260D01*
X163157263Y-82784266D01*
X163270321Y-82871018D01*
X163349711Y-82931936D01*
X163559788Y-83053224D01*
X163783900Y-83146054D01*
X164018211Y-83208838D01*
X164198586Y-83232584D01*
X164258711Y-83240500D01*
X164258712Y-83240500D01*
X164501289Y-83240500D01*
X164549388Y-83234167D01*
X164741789Y-83208838D01*
X164976100Y-83146054D01*
X165200212Y-83053224D01*
X165410289Y-82931936D01*
X165602738Y-82784265D01*
X165774265Y-82612738D01*
X165921936Y-82420289D01*
X166043224Y-82210212D01*
X166136054Y-81986100D01*
X166198838Y-81751789D01*
X166230500Y-81511288D01*
X166230500Y-81268712D01*
X166226258Y-81236494D01*
X166198838Y-81028214D01*
X166198838Y-81028211D01*
X166136054Y-80793900D01*
X166043224Y-80569788D01*
X165921936Y-80359711D01*
X165774265Y-80167262D01*
X165774260Y-80167256D01*
X165602743Y-79995739D01*
X165602736Y-79995733D01*
X165410293Y-79848067D01*
X165410292Y-79848066D01*
X165410289Y-79848064D01*
X165209442Y-79732105D01*
X165200214Y-79726777D01*
X165200205Y-79726773D01*
X164976104Y-79633947D01*
X164741785Y-79571161D01*
X164501289Y-79539500D01*
X164501288Y-79539500D01*
X164258712Y-79539500D01*
X164258711Y-79539500D01*
X164018214Y-79571161D01*
X163783895Y-79633947D01*
X163559794Y-79726773D01*
X163559785Y-79726777D01*
X163349706Y-79848067D01*
X163157263Y-79995733D01*
X163157256Y-79995739D01*
X162985739Y-80167256D01*
X162985733Y-80167263D01*
X162838067Y-80359706D01*
X162716777Y-80569785D01*
X162716773Y-80569794D01*
X162623947Y-80793895D01*
X162561161Y-81028214D01*
X162529500Y-81268711D01*
X159915149Y-81268711D01*
X159935500Y-81140222D01*
X159935500Y-80919778D01*
X159901015Y-80702049D01*
X159858043Y-80569794D01*
X159832896Y-80492396D01*
X159832895Y-80492393D01*
X159788399Y-80405067D01*
X159732815Y-80295978D01*
X159676477Y-80218435D01*
X159603247Y-80117641D01*
X159603243Y-80117636D01*
X159447363Y-79961756D01*
X159447358Y-79961752D01*
X159269025Y-79832187D01*
X159269024Y-79832186D01*
X159269022Y-79832185D01*
X159151791Y-79772452D01*
X159072606Y-79732104D01*
X159072603Y-79732103D01*
X158862952Y-79663985D01*
X158754086Y-79646742D01*
X158645222Y-79629500D01*
X158424778Y-79629500D01*
X158352201Y-79640995D01*
X158207047Y-79663985D01*
X157997396Y-79732103D01*
X157997393Y-79732104D01*
X157800974Y-79832187D01*
X157622641Y-79961752D01*
X157622636Y-79961756D01*
X157572463Y-80011929D01*
X157511140Y-80045413D01*
X157441448Y-80040428D01*
X157385515Y-79998557D01*
X157368601Y-79967580D01*
X157338797Y-79887671D01*
X157338793Y-79887664D01*
X157252547Y-79772455D01*
X157252544Y-79772452D01*
X157137335Y-79686206D01*
X157137328Y-79686202D01*
X157002482Y-79635908D01*
X157002483Y-79635908D01*
X156942883Y-79629501D01*
X156942881Y-79629500D01*
X156942873Y-79629500D01*
X156942865Y-79629500D01*
X155179931Y-79629500D01*
X155163897Y-79625083D01*
X155149016Y-79625584D01*
X155127277Y-79614996D01*
X155116436Y-79612010D01*
X155103585Y-79604349D01*
X155098716Y-79599480D01*
X154994827Y-79539500D01*
X154961785Y-79520423D01*
X154809057Y-79479499D01*
X154650943Y-79479499D01*
X154643347Y-79479499D01*
X154643331Y-79479500D01*
X149802810Y-79479500D01*
X149735771Y-79459815D01*
X149702492Y-79428386D01*
X149639639Y-79341876D01*
X149506022Y-79208259D01*
X149353148Y-79097189D01*
X149184785Y-79011403D01*
X149005067Y-78953008D01*
X148818435Y-78923449D01*
X148818430Y-78923449D01*
X148629468Y-78923449D01*
X148629463Y-78923449D01*
X148442830Y-78953008D01*
X148263112Y-79011403D01*
X148094749Y-79097189D01*
X148007528Y-79160559D01*
X147941876Y-79208259D01*
X147941874Y-79208261D01*
X147941873Y-79208261D01*
X147808261Y-79341873D01*
X147808261Y-79341874D01*
X147808259Y-79341876D01*
X147760559Y-79407528D01*
X147697189Y-79494749D01*
X147611403Y-79663112D01*
X147553008Y-79842830D01*
X147523449Y-80029462D01*
X119500500Y-80029462D01*
X119500500Y-79483750D01*
X119500726Y-79476263D01*
X119518271Y-79186205D01*
X119520076Y-79171340D01*
X119571780Y-78889202D01*
X119575364Y-78874664D01*
X119660699Y-78600812D01*
X119665997Y-78586842D01*
X119783727Y-78325258D01*
X119790680Y-78312012D01*
X119830959Y-78245381D01*
X119939075Y-78066534D01*
X119947567Y-78054230D01*
X120124481Y-77828417D01*
X120134396Y-77817226D01*
X120337226Y-77614396D01*
X120348417Y-77604481D01*
X120574230Y-77427567D01*
X120586534Y-77419075D01*
X120832012Y-77270680D01*
X120845258Y-77263727D01*
X121106842Y-77145997D01*
X121120812Y-77140699D01*
X121394668Y-77055362D01*
X121409198Y-77051780D01*
X121691344Y-77000075D01*
X121706201Y-76998271D01*
X121996264Y-76980726D01*
X122003751Y-76980500D01*
X122065892Y-76980500D01*
X167824108Y-76980500D01*
X167886249Y-76980500D01*
X167893736Y-76980726D01*
G37*
%TD.AperFunction*%
%TD*%
M02*
